Coordinates
version=1
nRows=17
nColumns=33
inDegrees=yes

Units are S.I. units (second, meters, Newtons, ...)
Angles are in degrees.

endheader
time	ground_thorax_rot_x	ground_thorax_rot_y	ground_thorax_rot_z	ground_thorax_tx	ground_thorax_ty	ground_thorax_tz	clav_prot_r	clav_elev_r	scapula_abduction_r	scapula_elevation_r	scapula_upward_rot_r	scapula_winging_r	shoulder_elv_r	plane_of_elev_r	axial_rot_r	elbow_flexion_r	pro_sup_r	wrist_flex_r	wrist_dev_r	clav_prot_l	clav_elev_l	scapula_abduction_l	scapula_elevation_l	scapula_upward_rot_l	scapula_winging_l	shoulder_elv_l	plane_of_elev_l	axial_rot_l	elbow_flexion_l	pro_sup_l	wrist_flex_l	wrist_dev_l
      4.01000000	     23.95469365	     34.86073043	     51.68259877	    -77.36233140	    774.68521200	     10.09721487	     13.60701829	     37.89013217	     33.99571476	     45.00000000	    -41.68337135	  -1884.57957665	  -2098.37211083	     31.39081077	     57.58793373	   1449.36181317	     27.24183470	     17.62688928	     11.20835528	      7.55544779	    -45.00000000	    -35.76441241	     45.00000000	    -45.00000000	   1535.53980615	  -3701.07877931	    144.10524893	    133.26689638	   -711.18777976	     24.59030017	      8.98618340	    -19.40671992
      4.02000000	     24.20902379	     34.73830004	     51.25993665	    -78.95223776	    775.17354775	     10.06077723	     13.62525043	     37.96238900	     34.10749670	     45.00000000	    -41.48799025	  -1884.70998117	  -2098.27337189	     31.43581049	     57.46245856	   1449.50020961	     27.09171958	     17.68471327	     11.17591025	      7.55215051	    -45.00000000	    -35.81890380	     45.00000000	    -45.00000000	   1535.51263605	  -3700.89302528	    143.92940952	    133.80454881	   -711.08261255	     24.48268777	      8.93375385	    -19.45034995
      4.03000000	     24.50508917	     34.60174696	     50.78754107	    -80.60624252	    775.70071586	     10.02013384	     13.62815865	     37.99711611	     34.23493402	     45.00000000	    -41.28171025	  -1884.83361331	  -2098.20739190	     31.49237831	     57.35155441	   1449.60768255	     26.98312605	     17.74293411	     11.15942209	      7.55090721	    -45.00000000	    -35.86877646	     45.00000000	    -45.00000000	   1535.51118257	  -3700.73812517	    143.74413975	    134.33080900	   -711.00452522	     24.35574426	      8.87364802	    -19.48891913
      4.04000000	     24.81025961	     34.45954755	     50.28059789	    -82.32575772	    776.27030952	      9.97624103	     13.63938371	     38.08961699	     34.34914723	     45.00000000	    -41.02738882	  -1884.95218238	  -2098.10768369	     31.53632367	     57.28896084	   1449.70353617	     26.91356983	     17.79523987	     11.11569853	      7.54183209	    -45.00000000	    -35.90963890	     45.00000000	    -45.00000000	   1535.46284739	  -3700.57820274	    143.56274997	    134.94842328	   -710.91411161	     24.19599050	      8.82461109	    -19.53001734
      4.05000000	     25.14473602	     34.28686423	     49.69628350	    -84.10864288	    776.88431792	      9.92944555	     13.63260072	     38.14628889	     34.46366703	     45.00000000	    -40.70639848	  -1885.10743771	  -2098.02203242	     31.60592414	     57.29806196	   1449.86521256	     26.88379045	     17.87197326	     11.08175481	      7.53806937	    -45.00000000	    -35.93598833	     45.00000000	    -45.00000000	   1535.40846187	  -3700.37776139	    143.34550525	    135.59285618	   -710.83652232	     24.01140209	      8.74953854	    -19.56433835
      4.06000000	     25.44268658	     34.11528856	     49.20659507	    -85.95199905	    777.54387900	      9.87976796	     13.64909335	     38.22191836	     34.62395686	     45.00000000	    -40.47680502	  -1885.22880228	  -2097.95946490	     31.65253042	     57.19808322	   1449.96744415	     26.87618467	     17.93412391	     11.03508456	      7.53333535	    -45.00000000	    -35.99525595	     45.00000000	    -45.00000000	   1535.44210538	  -3700.19208201	    143.14574998	    136.12752210	   -710.78455731	     23.82625029	      8.70582583	    -19.59899402
      4.07000000	     25.70929947	     33.99806414	     48.72830393	    -87.85968587	    778.25194159	      9.82673094	     13.66940828	     38.29672658	     34.74635806	     45.00000000	    -40.25811462	  -1885.37530135	  -2097.81607232	     31.67629509	     57.11949702	   1450.08455316	     26.88603488	     17.99035293	     10.95097787	      7.52730062	    -45.00000000	    -36.07910378	     45.00000000	    -45.00000000	   1535.39472649	  -3699.98278690	    142.98584016	    136.77226789	   -710.66003549	     23.59255343	      8.67230701	    -19.64389123
      4.08000000	     26.08196828	     33.81303467	     48.10584964	    -89.82844076	    779.00834093	      9.77013297	     13.64269997	     38.30304860	     34.90581112	     45.00000000	    -39.93834454	  -1885.53544922	  -2097.74601881	     31.73752662	     57.09401920	   1450.13550101	     26.92258086	     18.05568373	     10.93186374	      7.53386327	    -45.00000000	    -36.06366859	     45.00000000	    -45.00000000	   1535.39559882	  -3699.81325118	    142.71049435	    137.38594975	   -710.62898974	     23.34377851	      8.56973235	    -19.65902749
      4.09000000	     26.30158535	     33.66894708	     47.63741441	    -91.85778231	    779.81373174	      9.70939242	     13.68641093	     38.42047885	     34.99954933	     45.00000000	    -39.74173049	  -1885.66804062	  -2097.62903358	     31.74826343	     56.98941559	   1450.37484082	     26.92334229	     18.13968734	     10.82215350	      7.51586777	    -45.00000000	    -36.16674709	     45.00000000	    -45.00000000	   1535.35629820	  -3699.55456054	    142.59759781	    138.02258575	   -710.47578140	     23.05897279	      8.55943053	    -19.71026390
      4.10000000	     26.68012013	     33.42826918	     46.98380782	    -93.95318861	    780.67079087	      9.64410929	     13.65492281	     38.49107998	     35.16227994	     45.00000000	    -39.35943140	  -1885.81798716	  -2097.55453757	     31.81591238	     56.96636765	   1450.45880115	     26.95024071	     18.21205300	     10.77598066	      7.51497434	    -45.00000000	    -36.18903182	     45.00000000	    -45.00000000	   1535.33528394	  -3699.35051614	    142.34375848	    138.71037374	   -710.47980134	     22.75742851	      8.47718510	    -19.71929432
      4.11000000	     26.90761999	     33.30149328	     46.49901234	    -96.10907840	    781.57814663	      9.57401638	     13.69662119	     38.56894621	     35.28463009	     45.00000000	    -39.21403759	  -1885.97166363	  -2097.42365977	     31.82927034	     56.77861257	   1450.63371235	     26.93054902	     18.28102421	     10.65812106	      7.51034437	    -45.00000000	    -36.35636857	     45.00000000	    -45.00000000	   1535.35043276	  -3699.11653255	    142.20073562	    139.29515342	   -710.29041045	     22.42878770	      8.48709848	    -19.77935485
      4.12000000	     27.30642700	     33.04538247	     45.84309865	    -98.32681342	    782.53695843	      9.49914217	     13.66114458	     38.64902329	     35.44321862	     45.00000000	    -38.83336976	  -1886.10872138	  -2097.33088229	     31.90284515	     56.71138470	   1450.67349225	     26.93613713	     18.34640458	     10.61045983	      7.50641347	    -45.00000000	    -36.33112590	     45.00000000	    -45.00000000	   1535.33758957	  -3698.92518194	    141.95583628	    139.97851535	   -710.30031528	     22.10013880	      8.38241791	    -19.78614213
      4.13000000	     27.60424392	     32.87428623	     45.24896063	   -100.59257485	    783.54235399	      9.41954065	     13.67424622	     38.77589796	     35.48651981	     45.00000000	    -38.59076813	  -1886.19339549	  -2097.25858777	     31.90798400	     56.63122860	   1450.84477039	     26.91434795	     18.42542677	     10.52121269	      7.49650640	    -45.00000000	    -36.31866526	     45.00000000	    -45.00000000	   1535.26899648	  -3698.71429145	    141.82772962	    140.70729437	   -710.21464244	     21.76065003	      8.33431177	    -19.81839980
      4.14000000	     28.03381273	     32.56146582	     44.44659960	   -102.92597510	    784.60372553	      9.33437660	     13.63617619	     38.92645747	     35.72068975	     45.00000000	    -37.96431097	  -1886.48182306	  -2097.14131058	     31.93801108	     56.68085218	   1451.02250999	     26.90552720	     18.50817595	     10.39074376	      7.45466290	    -45.00000000	    -36.46717457	     45.00000000	    -45.00000000	   1535.20916445	  -3698.41331580	    141.52722327	    141.57871172	   -710.09140626	     21.40697022	      8.29075480	    -19.86852794
      4.15000000	     28.30700775	     32.34205421	     43.93933737	   -105.30073348	    785.71016792	      9.24328244	     13.64648165	     38.88165780	     35.87119245	     45.00000000	    -37.85177440	  -1886.56819730	  -2097.01810757	     32.02880634	     56.32454592	   1451.03622049	     26.86628675	     18.56827944	     10.34640239	      7.49985474	    -45.00000000	    -36.46418423	     45.00000000	    -45.00000000	   1535.31460036	  -3698.21329101	    141.29585931	    141.97119568	   -710.11654829	     21.14784253	      8.17491515	    -19.88044317
      4.16000000	     28.68392423	     32.05880864	     43.24366191	   -107.71605330	    786.86094876	      9.14505545	     13.59413143	     38.97172996	     36.01535494	     45.00000000	    -37.41853163	  -1886.72929795	  -2096.92618945	     32.07191657	     56.26639198	   1451.14229006	     26.86272133	     18.64576908	     10.26780034	      7.50290914	    -45.00000000	    -36.47140034	     45.00000000	    -45.00000000	   1535.29168600	  -3697.96115938	    141.04910436	    142.69758147	   -710.06480224	     20.85284859	      8.07163517	    -19.90922364
      4.17000000	     28.88069712	     31.91329814	     42.76154971	   -110.16725544	    788.05133362	      9.03673109	     13.65132505	     39.05339364	     36.13998492	     45.00000000	    -37.32930006	  -1886.88944464	  -2096.72087655	     32.09464145	     55.90682314	   1451.37899810	     26.81831395	     18.72857193	     10.10761204	      7.48361123	    -45.00000000	    -36.70376318	     45.00000000	    -45.00000000	   1535.30656258	  -3697.67676059	    140.97577536	    143.19477956	   -709.82384833	     20.58584267	      8.07330220	    -19.99916866
